#include "hUGEDriver.h"
#include <stddef.h>

static const unsigned char order_cnt = 12;

static const unsigned char P0[] = {
    DN(C_3,1,0x000),
    DN(C_3,1,0x000),
    DN(C_3,2,0x000),
    DN(___,0,0x000),
    DN(Ds3,1,0x000),
    DN(Ds3,1,0x000),
    DN(C_3,1,0x000),
    DN(___,0,0x000),
    DN(F_3,1,0x000),
    DN(F_3,1,0x000),
    DN(F_3,1,0x000),
    DN(___,0,0x000),
    DN(G_3,2,0x000),
    DN(___,0,0x000),
    DN(Ds3,2,0x000),
    DN(___,0,0x000),
    DN(C_3,1,0x000),
    DN(C_3,1,0x000),
    DN(C_3,1,0x000),
    DN(___,0,0x000),
    DN(Ds3,1,0x000),
    DN(Ds3,1,0x000),
    DN(Ds3,1,0x000),
    DN(___,0,0x000),
    DN(F_3,1,0x000),
    DN(F_3,1,0x000),
    DN(F_3,1,0x000),
    DN(___,0,0x000),
    DN(G_3,1,0x000),
    DN(G_3,1,0x000),
    DN(G_3,1,0x000),
    DN(___,0,0x000),
    DN(C_3,1,0x000),
    DN(C_3,1,0x000),
    DN(C_3,2,0x000),
    DN(___,0,0x000),
    DN(Ds3,1,0x000),
    DN(Ds3,1,0x000),
    DN(C_3,1,0x000),
    DN(___,0,0x000),
    DN(F_3,1,0x000),
    DN(F_3,1,0x000),
    DN(F_3,1,0x000),
    DN(___,0,0x000),
    DN(G_3,2,0x000),
    DN(___,0,0x000),
    DN(Ds3,2,0x000),
    DN(___,0,0x000),
    DN(C_3,1,0x000),
    DN(C_3,1,0x000),
    DN(C_3,1,0x000),
    DN(___,0,0x000),
    DN(Ds3,1,0x000),
    DN(Ds3,1,0x000),
    DN(Ds3,1,0x000),
    DN(___,0,0x000),
    DN(F_3,1,0x000),
    DN(F_3,1,0x000),
    DN(F_3,1,0x000),
    DN(___,0,0x000),
    DN(G_3,1,0x000),
    DN(G_3,1,0x000),
    DN(G_3,1,0x000),
    DN(___,0,0x000),
};
static const unsigned char P1[] = {
    DN(C_6,3,0x000),
    DN(___,0,0x000),
    DN(___,0,0x000),
    DN(___,0,0x000),
    DN(G_5,3,0x000),
    DN(___,0,0x000),
    DN(E_5,3,0x000),
    DN(___,0,0x000),
    DN(F_5,3,0x000),
    DN(___,0,0x000),
    DN(G_5,3,0x000),
    DN(___,0,0x000),
    DN(F_5,3,0x000),
    DN(___,0,0x000),
    DN(E_5,3,0x000),
    DN(___,0,0x000),
    DN(C_5,3,0x000),
    DN(___,0,0x000),
    DN(___,0,0x000),
    DN(___,0,0x000),
    DN(Ds5,3,0x000),
    DN(___,0,0x000),
    DN(___,0,0x000),
    DN(___,0,0x000),
    DN(F_5,3,0x000),
    DN(___,0,0x000),
    DN(F_5,3,0x000),
    DN(___,0,0x000),
    DN(Ds5,3,0x000),
    DN(___,0,0x000),
    DN(As4,3,0x000),
    DN(___,0,0x000),
    DN(C_5,3,0x000),
    DN(___,0,0x000),
    DN(___,0,0x000),
    DN(___,0,0x000),
    DN(Ds5,3,0x000),
    DN(___,0,0x000),
    DN(C_5,3,0x000),
    DN(___,0,0x000),
    DN(F_5,3,0x000),
    DN(___,0,0x000),
    DN(Fs5,3,0x000),
    DN(___,0,0x000),
    DN(Ds5,3,0x000),
    DN(___,0,0x000),
    DN(As4,3,0x000),
    DN(___,0,0x000),
    DN(C_5,3,0x000),
    DN(C_5,3,0x000),
    DN(C_5,3,0x000),
    DN(___,0,0x000),
    DN(Ds5,3,0x000),
    DN(___,0,0x000),
    DN(___,0,0x000),
    DN(___,0,0x000),
    DN(As4,3,0x000),
    DN(___,0,0x000),
    DN(___,0,0x000),
    DN(___,0,0x000),
    DN(C_5,3,0x000),
    DN(C_5,3,0x000),
    DN(C_5,3,0x000),
    DN(___,0,0x000),
};
static const unsigned char P2[] = {
    DN(F_6,1,0x2AA),
    DN(___,0,0x255),
    DN(E_6,2,0x000),
    DN(___,0,0x000),
    DN(A_7,1,0x244),
    DN(___,0,0x244),
    DN(E_6,2,0x000),
    DN(___,0,0x000),
    DN(F_6,1,0x2AA),
    DN(___,0,0x255),
    DN(F_6,2,0x000),
    DN(___,0,0x000),
    DN(A_7,1,0x244),
    DN(___,0,0x244),
    DN(F_6,2,0x000),
    DN(___,0,0x000),
    DN(F_6,1,0x2AA),
    DN(___,0,0x255),
    DN(C_6,2,0x000),
    DN(___,0,0x000),
    DN(A_7,1,0x244),
    DN(___,0,0x244),
    DN(C_6,2,0x000),
    DN(___,0,0x000),
    DN(F_6,1,0x2AA),
    DN(___,0,0x255),
    DN(E_6,2,0x000),
    DN(___,0,0x000),
    DN(A_7,1,0x244),
    DN(___,0,0x244),
    DN(E_6,2,0x000),
    DN(___,0,0x000),
    DN(F_6,1,0x2AA),
    DN(___,0,0x255),
    DN(E_6,2,0x000),
    DN(___,0,0x000),
    DN(A_7,1,0x244),
    DN(___,0,0x244),
    DN(E_6,2,0x000),
    DN(___,0,0x000),
    DN(F_6,1,0x2AA),
    DN(___,0,0x255),
    DN(F_6,2,0x000),
    DN(___,0,0x000),
    DN(A_7,1,0x244),
    DN(___,0,0x244),
    DN(F_6,2,0x000),
    DN(___,0,0x000),
    DN(F_6,1,0x2AA),
    DN(___,0,0x255),
    DN(C_6,2,0x000),
    DN(___,0,0x000),
    DN(A_7,1,0x244),
    DN(___,0,0x244),
    DN(C_6,2,0x000),
    DN(___,0,0x000),
    DN(F_6,1,0x2AA),
    DN(___,0,0x255),
    DN(E_6,2,0x000),
    DN(___,0,0x000),
    DN(A_7,1,0x244),
    DN(___,0,0x244),
    DN(E_6,2,0x000),
    DN(___,0,0x000),
};
static const unsigned char P3[] = {
    DN(Cs8,1,0xF07),
    DN(___,0,0x000),
    DN(Cs8,1,0x000),
    DN(___,0,0x000),
    DN(G_6,2,0x000),
    DN(___,0,0x000),
    DN(Cs8,1,0x000),
    DN(___,0,0x000),
    DN(Cs8,1,0x000),
    DN(___,0,0x000),
    DN(Cs8,1,0x000),
    DN(___,0,0x000),
    DN(G_6,2,0x000),
    DN(___,0,0x000),
    DN(F_7,3,0x000),
    DN(F_7,3,0x000),
    DN(Cs8,1,0x000),
    DN(___,0,0x000),
    DN(Cs8,1,0x000),
    DN(___,0,0x000),
    DN(G_6,2,0x000),
    DN(___,0,0x000),
    DN(Cs8,1,0x000),
    DN(___,0,0x000),
    DN(Cs8,1,0x000),
    DN(___,0,0x000),
    DN(Cs8,1,0x000),
    DN(___,0,0x000),
    DN(G_6,2,0x000),
    DN(___,0,0x000),
    DN(E_7,3,0x000),
    DN(Ds7,3,0x000),
    DN(Cs8,1,0x000),
    DN(___,0,0x000),
    DN(Cs8,1,0x000),
    DN(___,0,0x000),
    DN(G_6,2,0x000),
    DN(___,0,0x000),
    DN(Cs8,1,0x000),
    DN(___,0,0x000),
    DN(Cs8,1,0x000),
    DN(___,0,0x000),
    DN(Cs8,1,0x000),
    DN(___,0,0x000),
    DN(G_6,2,0x000),
    DN(___,0,0x000),
    DN(Cs8,1,0x000),
    DN(___,0,0x000),
    DN(Cs8,1,0x000),
    DN(___,0,0x000),
    DN(Ds7,3,0x000),
    DN(G_7,3,0x000),
    DN(G_6,2,0x000),
    DN(___,0,0x000),
    DN(Cs8,1,0x000),
    DN(___,0,0x000),
    DN(Cs8,1,0x000),
    DN(___,0,0x000),
    DN(G_7,3,0x000),
    DN(Ds7,3,0x000),
    DN(G_6,2,0x000),
    DN(___,0,0x000),
    DN(Cs8,1,0x000),
    DN(___,0,0x000),
};
static const unsigned char P9[] = {
    DN(C_5,3,0x000),
    DN(___,0,0x000),
    DN(___,0,0x000),
    DN(___,0,0x000),
    DN(___,0,0x000),
    DN(___,0,0x000),
    DN(___,0,0x000),
    DN(___,0,0x000),
    DN(___,0,0x000),
    DN(___,0,0x000),
    DN(___,0,0x000),
    DN(___,0,0x000),
    DN(___,0,0x000),
    DN(___,0,0x000),
    DN(___,0,0x000),
    DN(___,0,0x000),
    DN(___,0,0x000),
    DN(___,0,0x000),
    DN(___,0,0x000),
    DN(___,0,0x000),
    DN(___,0,0x000),
    DN(___,0,0x000),
    DN(___,0,0x000),
    DN(___,0,0x000),
    DN(___,0,0x000),
    DN(___,0,0x000),
    DN(___,0,0x000),
    DN(___,0,0x000),
    DN(___,0,0x000),
    DN(___,0,0x000),
    DN(___,0,0x000),
    DN(___,0,0x000),
    DN(___,0,0x000),
    DN(___,0,0x000),
    DN(___,0,0x000),
    DN(___,0,0x000),
    DN(___,0,0x000),
    DN(___,0,0x000),
    DN(___,0,0x000),
    DN(___,0,0x000),
    DN(___,0,0x000),
    DN(___,0,0x000),
    DN(___,0,0x000),
    DN(___,0,0x000),
    DN(___,0,0x000),
    DN(___,0,0x000),
    DN(___,0,0x000),
    DN(___,0,0x000),
    DN(___,0,0x000),
    DN(___,0,0x000),
    DN(___,0,0x000),
    DN(___,0,0x000),
    DN(___,0,0x000),
    DN(___,0,0x000),
    DN(___,0,0x000),
    DN(___,0,0x000),
    DN(___,0,0x000),
    DN(___,0,0x000),
    DN(___,0,0x000),
    DN(___,0,0x000),
    DN(___,0,0x000),
    DN(___,0,0x000),
    DN(___,0,0x000),
    DN(___,0,0x000),
};
static const unsigned char P13[] = {
    DN(G_6,2,0x000),
    DN(___,0,0x000),
    DN(___,0,0x000),
    DN(___,0,0x000),
    DN(___,0,0xC07),
    DN(___,0,0x000),
    DN(___,0,0x000),
    DN(___,0,0x000),
    DN(___,0,0xC03),
    DN(___,0,0x000),
    DN(___,0,0x000),
    DN(___,0,0x000),
    DN(___,0,0xC01),
    DN(___,0,0x000),
    DN(___,0,0x000),
    DN(___,0,0x000),
    DN(___,0,0xC00),
    DN(___,0,0x000),
    DN(___,0,0x000),
    DN(___,0,0x000),
    DN(___,0,0x000),
    DN(___,0,0x000),
    DN(___,0,0x000),
    DN(___,0,0x000),
    DN(___,0,0x000),
    DN(___,0,0x000),
    DN(___,0,0x000),
    DN(___,0,0x000),
    DN(___,0,0x000),
    DN(___,0,0x000),
    DN(___,0,0x000),
    DN(___,0,0x000),
    DN(___,0,0x000),
    DN(___,0,0x000),
    DN(___,0,0x000),
    DN(___,0,0x000),
    DN(___,0,0x000),
    DN(___,0,0x000),
    DN(___,0,0x000),
    DN(___,0,0x000),
    DN(___,0,0x000),
    DN(___,0,0x000),
    DN(___,0,0x000),
    DN(___,0,0x000),
    DN(___,0,0x000),
    DN(___,0,0x000),
    DN(___,0,0x000),
    DN(___,0,0x000),
    DN(___,0,0x000),
    DN(___,0,0x000),
    DN(___,0,0x000),
    DN(___,0,0x000),
    DN(___,0,0x000),
    DN(___,0,0x000),
    DN(___,0,0x000),
    DN(___,0,0x000),
    DN(___,0,0x000),
    DN(___,0,0x000),
    DN(___,0,0x000),
    DN(___,0,0x000),
    DN(___,0,0x000),
    DN(___,0,0x000),
    DN(___,0,0x000),
    DN(___,0,0x000),
};
static const unsigned char P15[] = {
    DN(___,0,0x000),
    DN(___,0,0x000),
    DN(Ds5,4,0x000),
    DN(___,0,0x000),
    DN(___,0,0x000),
    DN(___,0,0x000),
    DN(Ds5,4,0x000),
    DN(___,0,0x000),
    DN(___,0,0x000),
    DN(___,0,0x000),
    DN(Ds5,4,0x000),
    DN(___,0,0x000),
    DN(___,0,0x000),
    DN(___,0,0x000),
    DN(Ds5,4,0x000),
    DN(___,0,0x000),
    DN(___,0,0x000),
    DN(___,0,0x000),
    DN(G_5,4,0x000),
    DN(___,0,0x000),
    DN(___,0,0x000),
    DN(___,0,0x000),
    DN(G_5,4,0x000),
    DN(___,0,0x000),
    DN(___,0,0x000),
    DN(___,0,0x000),
    DN(Ds5,4,0x000),
    DN(___,0,0x000),
    DN(___,0,0x000),
    DN(___,0,0x000),
    DN(Ds5,4,0x000),
    DN(___,0,0x000),
    DN(___,0,0x000),
    DN(___,0,0x000),
    DN(C_5,4,0x000),
    DN(___,0,0x000),
    DN(___,0,0x000),
    DN(___,0,0x000),
    DN(C_5,4,0x000),
    DN(___,0,0x000),
    DN(___,0,0x000),
    DN(___,0,0x000),
    DN(Ds5,4,0x000),
    DN(___,0,0x000),
    DN(___,0,0x000),
    DN(___,0,0x000),
    DN(Ds5,4,0x000),
    DN(___,0,0x000),
    DN(___,0,0x000),
    DN(___,0,0x000),
    DN(G_5,4,0x000),
    DN(___,0,0x000),
    DN(___,0,0x000),
    DN(___,0,0x000),
    DN(G_5,4,0x000),
    DN(___,0,0x000),
    DN(___,0,0x000),
    DN(___,0,0x000),
    DN(C_5,4,0x000),
    DN(___,0,0x000),
    DN(___,0,0x000),
    DN(___,0,0x000),
    DN(C_5,4,0x000),
    DN(___,0,0x000),
};
static const unsigned char P19[] = {
    DN(___,0,0x000),
    DN(___,0,0x000),
    DN(___,0,0x000),
    DN(___,0,0x000),
    DN(___,0,0x000),
    DN(___,0,0x000),
    DN(___,0,0x000),
    DN(___,0,0x000),
    DN(___,0,0x000),
    DN(___,0,0x000),
    DN(___,0,0x000),
    DN(___,0,0x000),
    DN(___,0,0x000),
    DN(___,0,0x000),
    DN(___,0,0x000),
    DN(___,0,0x000),
    DN(___,0,0x000),
    DN(___,0,0x000),
    DN(___,0,0x000),
    DN(___,0,0x000),
    DN(___,0,0x000),
    DN(___,0,0x000),
    DN(___,0,0x000),
    DN(___,0,0x000),
    DN(___,0,0x000),
    DN(___,0,0x000),
    DN(___,0,0x000),
    DN(___,0,0x000),
    DN(___,0,0x000),
    DN(___,0,0x000),
    DN(___,0,0x000),
    DN(___,0,0x000),
    DN(___,0,0x000),
    DN(___,0,0x000),
    DN(___,0,0x000),
    DN(___,0,0x000),
    DN(___,0,0x000),
    DN(___,0,0x000),
    DN(___,0,0x000),
    DN(___,0,0x000),
    DN(___,0,0x000),
    DN(___,0,0x000),
    DN(___,0,0x000),
    DN(___,0,0x000),
    DN(___,0,0x000),
    DN(___,0,0x000),
    DN(___,0,0x000),
    DN(___,0,0x000),
    DN(___,0,0x000),
    DN(___,0,0x000),
    DN(___,0,0x000),
    DN(___,0,0x000),
    DN(___,0,0x000),
    DN(___,0,0x000),
    DN(___,0,0x000),
    DN(___,0,0x000),
    DN(___,0,0x000),
    DN(___,0,0x000),
    DN(___,0,0x000),
    DN(___,0,0x000),
    DN(___,0,0x000),
    DN(___,0,0x000),
    DN(___,0,0x000),
    DN(___,0,0x000),
};

static const unsigned char itNoiseSP2[] = {
    DN(___,0,0x000),
    DN(37,0,0x000),
    DN(42,0,0x000),
    DN(45,0,0x000),
    DN(36,0,0x000),
    DN(36,0,0x000),
    DN(36,7,0x000),
    DN(___,0,0x000),
    DN(___,0,0x000),
    DN(___,0,0x000),
    DN(___,0,0x000),
    DN(___,0,0x000),
    DN(___,0,0x000),
    DN(___,0,0x000),
    DN(___,0,0x000),
    DN(___,0,0x000),
    DN(___,0,0x000),
    DN(___,0,0x000),
    DN(___,0,0x000),
    DN(___,0,0x000),
    DN(___,0,0x000),
    DN(___,0,0x000),
    DN(___,0,0x000),
    DN(___,0,0x000),
    DN(___,0,0x000),
    DN(___,0,0x000),
    DN(___,0,0x000),
    DN(___,0,0x000),
    DN(___,0,0x000),
    DN(___,0,0x000),
    DN(___,0,0x000),
    DN(___,1,0x000),
};
static const unsigned char* const order1[] = {P0,P0,P0,P0,P0,P0};
static const unsigned char* const order2[] = {P1,P1,P9,P19,P15,P15};
static const unsigned char* const order3[] = {P2,P2,P13,P19,P2,P2};
static const unsigned char* const order4[] = {P3,P3,P3,P3,P3,P3};

static const hUGEDutyInstr_t duty_instruments[] = {
    {8,33,241,0,192},
    {8,0,240,0,128},
    {8,128,245,0,128},
    {8,0,242,0,128},
};
static const hUGEWaveInstr_t wave_instruments[] = {
    {0,32,5,0,128},
    {0,64,3,0,128},
};
static const hUGENoiseInstr_t noise_instruments[] = {
    {146,0,0,0,0},
    {241,itNoiseSP2,0,0,0},
    {112,0,128,0,0},
};

static const unsigned char waves[] = {
    0,0,255,255,255,255,255,255,255,255,255,255,255,255,255,255,
    0,0,0,0,255,255,255,255,255,255,255,255,255,255,255,255,
    0,0,0,0,0,0,0,0,255,255,255,255,255,255,255,255,
    0,0,0,0,0,0,0,0,0,0,0,0,255,255,255,255,
    0,1,18,35,52,69,86,103,120,137,154,171,188,205,222,239,
    254,220,186,152,118,84,50,16,18,52,86,120,154,188,222,255,
};

const hUGESong_t game_music = {7, &order_cnt, order1, order2, order3,order4, duty_instruments, wave_instruments, noise_instruments, NULL, waves};
